<svg version="1" xmlns="http://www.w3.org/2000/svg" width="426.667" height="426.667" viewBox="0 0 320.000000 320.000000"><path d="M0 160v160h320V0H0v160zM178.9 28.3c12.2 5.1 22.6 15.5 27.2 27.5 2.7 7.1 3.7 22 1.9 30.1-1.4 6.7-7.5 19.8-15.7 34.1-11.8 20.5-13.2 25-9.8 31 2.1 3.6 1.9 3.9-1.9 3l-3.4-.7 5.9 12.1c9 18.8 13.5 37.3 11.5 47.9-1.7 9.2-12.4 14.6-30.1 15.4-18.6.8-32.6-3.6-36.8-11.7-2.2-4.3-1.8-9.2 2.3-27.2 2.3-10 7-34.5 7-36.4 0-.2-2.2-.4-5-.4-2.7 0-5-.5-5-1 0-.6.4-1 1-1 1.1 0 6-8.1 6-9.9 0-.9-1.2-1-4.4-.6-2.4.4-5.3.4-6.5 0l-2-.6 2-3.9c4.4-8.4 3.5-15-4.5-32.3-6.3-13.5-7.6-18.5-7.6-29.4 0-14.3 3.6-23.6 13-33.7 6-6.4 11.9-10.4 19.9-13.3 5.8-2.1 7.9-2.3 17.6-2 9 .3 12.1.9 17.4 3zM203 207c-.8.5-1 1-.5 1 .6 0 1.1 1.3 1 3 0 2-.5 3-1.5 3-.9 0-2.1.5-2.8 1.2-.9.9-1.2.4-1.2-2.5 0-2.3.5-3.7 1.3-3.8 1 0 1-.2 0-.6-2.5-.9-1.3-2.3 2-2.3 2.4 0 2.8.3 1.7 1zm-98 44.5c0 6.3-.1 6.5-2.5 6.5-2.3 0-2.5-.3-2.5-4.9 0-4.7-.1-4.8-2.7-4.3-2 .4-2.3.7-1 1 2.1.4 2.3 3 .2 3.8-.8.4-1.5 1.5-1.5 2.5 0 1.4-.7 1.9-2.5 1.9-2.4 0-2.5-.2-2.5-6.5V245h15v6.5zm12-6.1c0 1.9-1.6 3.6-3.4 3.7-1.6.1-1.7.2-.3.6 2.1.5 2.3 3.1.2 3.9-.8.4-1.5 1.5-1.5 2.5 0 1.4-.7 1.9-2.5 1.9-2.4 0-2.5-.2-2.5-6.5V245h5c2.8 0 5 .2 5 .4zm8.7 6.3l2.2 6.3h-2.4c-1.4 0-2.5-.5-2.5-1 0-.6-.9-1-2-1s-2 .4-2 1c0 .5-1.2 1-2.6 1-1.7 0-2.4-.4-2.1-1.3.2-.6 1.3-3.6 2.3-6.5 1.7-4.6 2.2-5.2 4.4-5 2.1.3 2.9 1.4 4.7 6.5zm8.1-4l1 2.8.1-2.8c.1-2.3.5-2.7 3.1-2.7s3 .4 3.1 2.7l.1 2.8 1-2.8c1-2.7 4.8-3.9 4.8-1.5 0 .9.3.9 1.2 0 1.7-1.7 7.4-1.5 9.2.4 1.5 1.4 1.6 1.4 1.6 0 0-1.2 1.1-1.6 4.4-1.6 5 0 7.1 1.8 6.2 5.4-.3 1.3-.2 3.5.3 4.8.8 1.8 1 1 1-4 .1-5.5.3-6.2 2.1-6.2 1.7 0 2 .7 2 5 0 4.7.2 5 2.5 5 1.6 0 2.5.6 2.5 1.5 0 1.2-1.4 1.5-6.8 1.5-6.2 0-7-.2-8-2.3l-1.1-2.2v2.2c-.1 1.8-.7 2.3-2.6 2.3-1.6 0-2.5-.6-2.5-1.6 0-1.4-.1-1.4-1.6 0-2.5 2.5-7.9 2-10.3-.9l-2-2.6-.3 2.3c-.4 3.2-5.8 4-5.8.9 0-1.2-.4-2.1-1-2.1-.5 0-1 .9-1 2 0 1.5-.7 2-2.9 2-2.4 0-2.9-.5-3.4-3.3-.3-1.7-.9-4.7-1.3-6.5-.6-2.8-.4-3.2 1.4-3.2 1.3 0 2.4 1 3 2.7zm57.4-1c2.2 2 2.3 7 .1 9.5-1.1 1.2-3 1.8-6 1.8H181v-13h4.2c2.4 0 4.9.7 6 1.7zm21 3.1c.4 6.6 2.8 6.8 2.8.3 0-4.4.3-5.1 2-5.1s2 .7 2 5.3c0 2.9-.5 5.8-1.2 6.5-1.6 1.6-7 1.6-8.6 0-.9-.9-1.2-.9-1.2 0 0 .7-1.6 1.2-4 1.2-7 0-10.5-6.5-6-11 1.5-1.5 3.2-1.9 7.9-1.9l6 .1.3 4.6zm16.6-3.6c2.3 2.3 1.4 5.9-1.8 7.1-1.8.7-3 1.9-3 2.9 0 1.1-.7 1.8-2 1.8-1.8 0-2-.7-2-6.5V245h3.8c2.1 0 4.3.5 5 1.2zm9.9 21.3c5 3.3 7.8 14.4 5.3 20.9-1.7 4.5-6.6 6.8-13.9 6.3-5.7-.3-6.7-.7-9.2-3.5-2.5-2.8-2.9-4-2.9-9.3 0-9.1 2.9-13.7 10-16.3 2.4-.9 8 .2 10.7 1.9zm-178.2.9c3.9 2.6 3.4 7.5-1.1 11.9l-3.7 3.5 4.2 4.9c2.2 2.7 4.1 5.2 4.1 5.6 0 .4-1.5.7-3.3.7-2.7 0-4-.8-7-4.5-3.8-4.5-3.8-4.5-6.7-3-3 1.5-3 1.5-3-1.2.1-2.3 1-3.4 5.5-6.1 9-5.4 8.4-10.2-1.1-10.2H43v25h-6V265.7l10.5.5c7.3.4 11.3 1.1 13 2.2zm12.7-.5c-.1.7-.5 5.5-.9 10.6-.5 8.5-.4 9.4 1.6 11.4 2.7 2.7 6.5 2.7 9.2 0 2-2 2.1-2.9 1.6-11.4-.4-5.1-.8-9.9-.9-10.6-.2-.9.7-1.4 2.6-1.4 2.4 0 3.1.5 3.8 3 1.6 6 2.1 17.1.9 19.4-4.7 8.6-22.4 7.8-25.5-1.2-.9-2.6.7-18.7 2-20.9.9-1.5 5.9-.5 5.6 1.1zm41-.1c2.3 2.3-.5 3.4-5.4 2.2-3.5-.9-5.1-.9-6.8 0-3.3 1.7-2.1 3.2 5.9 7 10.5 5.1 12.6 9 7.8 14.6-2 2.3-3.4 2.8-8.3 3.2-8.6.6-17.1-2-13.5-4.2.5-.3 3.4-.1 6.5.5 6.3 1.1 9.6.1 9.6-3.1 0-1.4-1.9-2.9-6.8-5.4-9.4-4.7-11.5-10.1-5.8-14.9 1.7-1.4 3.5-1.7 8.8-1.5 3.7.2 7.3.9 8 1.6zm25 0c2.2 2.2-.4 3.1-5.4 2.1-5-1.1-9.3.1-8.6 2.4.2.7 3.7 2.8 7.7 4.7 4 2 7.9 4.4 8.7 5.5 2.2 2.9 1.7 6.9-1.2 9.6-2.3 2.1-3.5 2.4-10.7 2.4-8.5 0-12.2-1.1-10.8-3.3.5-.9 2-1 6.4-.2 6.4 1.2 9.7.2 9.7-3 0-1.4-1.9-2.9-6.9-5.4-7-3.6-8.1-4.8-8.1-9.4 0-3.2.8-4.4 3.5-6.1 2.5-1.4 14-1 15.7.7zm13.3 12.7v14l-3.2.3-3.3.3v-29.2l3.3.3 3.2.3v14zm25.4-7c1.3 4.1 3.6 10.2 5.2 13.6 1.6 3.3 2.9 6.3 2.9 6.5 0 .2-1.5.4-3.4.4-3.8 0-4.7-1.3-9.6-14.9l-2.7-7.4-1.7 2.6c-2.5 3.7-5.7 12.7-5.1 13.8 1 1.5 3.7 1.1 7.2-1.1 3.2-1.9 3.3-1.9 4.3 0 .9 1.6.4 2.3-3.5 4.5-5.3 3.2-11.8 4.3-14 2.5-3.5-2.9-.3-11.7 8-22.3 3.6-4.5 5.1-5.7 7.3-5.7 2.6 0 3 .5 5.1 7.5zm33.1-6c7.9 4.1 6.2 12.8-3.6 19.3l-4.7 3.2h6.6c6.5 0 6.7.1 6.7 2.5v2.5h-12c-11 0-12-.1-12-1.9 0-1 1.8-3.1 4.1-4.7 5.7-3.9 11.9-11.2 11.9-14 0-1.4-1-3-2.6-4.1-2.4-1.5-2.9-1.5-5.3-.2-1.6.9-2.8 2.6-3.1 4.4-.6 3.3-3.3 4.1-3.8 1.2-.7-3.4.8-6.6 3.6-8.1 3.5-2 10.5-2 14.2-.1zm44.8 12.8l.3 13.7H249v-11c0-9.3-.3-11-1.7-11.9-1-.5-1.4-1.3-1-1.7 1.1-1.1 7-3.2 8.2-2.9.6.1 1.1 5.8 1.3 13.8zm22.7-11.8c3 2.9 3.2 5.4.5 8.7l-1.9 2.5 2.4 1.1c2.7 1.3 4 4.9 3.1 8.7-2 7.8-22.3 7.1-23.8-.7-.7-3.5.8-6.6 3.6-7.9 2.3-1.1 2.3-1.2.5-3-2.8-2.8-2.4-7.3.7-9.8 3.9-3.1 11.7-2.9 14.9.4z"/><path d="M144.6 31.6c-5.9 2.1-18.6 10.5-18.6 12.3 0 .3 2.6.5 5.7.3 4.9-.3 6.4.1 9.6 2.2l3.7 2.5V45c0-5 1.5-8.8 4.8-12.3 2.3-2.4 2.4-2.7.6-2.6-1 0-3.6.7-5.8 1.5zm-2.3 9.3c-.3 1.2-1.1 1.7-2.3 1.4-2.3-.6-1.5-3.3 1-3.3 1.3 0 1.7.6 1.3 1.9zM156.3 32c-6.2 3.8-7.1 10.4-2.3 18.6 3.6 6.4 7.6 9.8 16 13.8 8.3 4 19.1 4.4 23.7 1 10.8-8 1.6-26.5-16.7-33.5-6.8-2.6-16.4-2.5-20.7.1zm20 3.4c5.8 2.1 11.1 6.2 13.5 10.5 2.7 4.7 2.7 7.8.2 11.1-1.6 2.2-2.7 2.5-7.7 2.5-10-.1-20.8-8-22.9-16.7-.5-2.2 0-3.4 2.4-5.8 3.5-3.4 7.9-3.9 14.5-1.6zM124.4 49.9c-7 4.3-11 14.8-10.1 26.7.7 8.9 3.2 14.9 8.1 19.1 10.2 9.1 22.3-1.1 23.4-19.6.6-10.9-1.6-18.2-7.3-23.8-4.9-4.9-8.9-5.6-14.1-2.4zM135.8 62c3.4 6.8 2.9 21-.7 19.4-2.2-.9-6.3-.6-7.5.6-1.5 1.5-2.5 1.2-2.4-.8 0-.9-.3-2.5-.7-3.5-.5-1.1-.3-1.7.6-1.7.8 0 2-.4 2.8-.9 1.2-.8 1.2-1.1 0-2.3-.8-.8-2-1.3-2.7-1-.6.2-1.2-.3-1.2-1.2 0-.9.5-1.6 1.1-1.6.7 0 .5-1-.6-2.6-1.4-2.2-1.5-3-.4-5.5.6-1.7 2.1-3.6 3.2-4.4 2.8-2 5.5-.2 8.5 5.5zM147 53.6c0 .8.5 1.2 1 .9.6-.4.8-1.1.5-1.6-.9-1.4-1.5-1.1-1.5.7zM202.1 59.8c-.2 5.1-7.9 14.2-11.9 14.2-.9 0 .2.9 2.4 2.1 5.2 2.5 7.2 4.7 8.9 9.5 1.8 5.5 2.9 2.6 3.3-9.1.2-6.9-.1-11.4-1.1-14.5-1-3-1.5-3.8-1.6-2.2zm-1.2 15.9c-1.4 1.7-3.1-.1-2.2-2.4.4-1 .9-1.1 1.9-.2 1.1.9 1.2 1.5.3 2.6zM153.4 64.7c1.4 7.1 1.6 12.2.8 16.5-1 4.9-.4 5.9 1.8 3.3 2.4-2.9 7.3-5.9 13.4-8.1 3.4-1.3 5.4-2.3 4.6-2.4-2.6-.1-11.3-4.6-16.3-8.4l-4.9-3.7.6 2.8zM184 74.5c0 .8.5 1.5 1 1.5.6 0 1-.7 1-1.5s-.4-1.5-1-1.5c-.5 0-1 .7-1 1.5zM176.3 82.1c-6.1 1.4-16.1 8.6-19.9 14.1-6.1 9.1-6.5 21.2-.8 28.9 2.3 3.2 9.7 8.9 11.6 8.9.4 0 .5-1.8.2-4-.7-4.4.6-7 3.7-7 2.4 0 3.2 1.6 3.1 5.6-.3 7.7 4.4 4.1 14.4-11.2 9.1-13.8 11.7-22.3 9-28.7-2.5-6-11.7-8.9-21.3-6.6zm13.8 6.9c2.2 1.2 2.5 3.8.6 6.4-1.1 1.6-3.1 2.3-6.5 2.5-.9.1-1 .6-.3 1.9.8 1.5.4 2-1.9 2.9-2.6 1-2.9.9-3.2-1.1-.3-2.2-3.1-2.7-7.5-1.2-1.7.5-2.3.4-2.3-.8 0-.9-.3-1.5-.7-1.5-.5.1-1.7.1-2.7 0-1.8-.1-1.8-.3.5-2.7 5.4-5.9 18.4-9.3 24-6.4zm-15.3 16.4c-.2 1.3-1 2.1-2.3 2.1-2.3 0-3.3-3.4-1.4-4.5 2-1.3 4 .1 3.7 2.4zM147.5 94.9c-.3.5-.1 1.2.5 1.6.5.3 1-.1 1-.9 0-1.8-.6-2.1-1.5-.7z"/><path d="M143.2 102c-4.4 3.7-11.7 4.7-17.5 2.5-1.4-.6-1.3.3 1.2 6.1 3.8 9.1 4.7 15.7 2.7 21.4-.8 2.4-1.4 4.6-1.2 4.8.9.8 7.6-2.8 8.8-4.7.7-1.2 1.6-2.1 2-2.1 1.6 0 .8 10.6-1.1 14.3-1.9 3.6-1.9 3.7.1 3.7 2.8 0 7.3-2.6 9.7-5.6 2-2.6 2.2-2.6 4.1-.9 3.5 3.1 12 16.2 16 24.7 5.9 12.2 8.3 23 7.8 34.2-.5 11.4-2.9 16.4-9.5 20.7l-4.7 2.9h4c5.5 0 15.1-2.6 18.5-5.1 4.8-3.4 6.2-7.3 5.6-15.4-1.4-17.3-12.4-42.9-24.8-57.5-14.3-16.9-19.1-26.6-19.3-38.7-.1-4-.1-7.3-.1-7.3 0 .1-1.1.9-2.3 2zm-2.1 9.1c-1 .4-1.8 0-2.2-1-.4-1 0-1.8 1-2.2 1-.4 1.8 0 2.2 1 .4 1 0 1.8-1 2.2zm38.5 75.6c-1 1-1.9-.5-1-1.8.6-1.1.8-1.1 1.2 0 .2.7.1 1.5-.2 1.8zm2.9 4.4c1 1.5-.1 2.3-2 1.5-.9-.3-1.3-1-1-1.6.8-1.3 2.2-1.3 3 .1zm1.8 7.3c.9 2.2-1.8 4-3.3 2.2-.6-.9-.9-2-.5-2.6.9-1.5 3.2-1.2 3.8.4zm-.3 8.1c0 .8.5 1.5 1 1.5.6 0 1 .4 1 .9 0 1.4-3.3 1.8-5.2.7-1.6-1-1.6-1.1 0-2.8 2.1-2.1 3.2-2.2 3.2-.3z"/><path d="M146.1 149.1c-2.2 1.8-2.4 2.8-2.9 14.2-.4 10.2-.1 12.9 1.3 16.2l1.8 4 1.4-3.7c1.7-4.2 3.6-5.3 6.4-3.8 2.3 1.3 2.4 4.2.3 7.5-1.5 2.4-1.5 2.5.4 2.5 2.6 0 8.6-6.8 10.2-11.4 1.1-3.4.9-4.1-2-9.4-4.7-8.3-11.9-18.2-13.3-18.2-.7.1-2.3 1-3.6 2.1zm12.5 17.3c1.6.6 1.4.9-1.2 2.5-2.8 1.7-2.9 1.7-4.2-.1-.7-1-1.9-1.5-2.5-1.1-.7.3.2-.7 1.8-2.3 2.5-2.4 3.1-2.6 3.7-1.3.3.9 1.4 1.9 2.4 2.3zM136.3 184.6c-1.3 6-2.6 12-2.9 13.4l-.6 2.5 2.1-2.5c3.1-3.7 4.3-8.7 3.9-16.9l-.3-7.4-2.2 10.9zM165.1 182.8c-3.5 8.3-21.6 21.2-29.7 21.2-2.9 0-3.4.3-3.4 2.4 0 7.5 12.1 6.2 23.1-2.5 4.7-3.7 9.4-11.1 10.9-17.1 1.5-5.8.9-8.3-.9-4z"/><path d="M169.5 187.5c-1.3 6.6-4.5 12.6-9.4 17.8-5.8 6.3-12.6 9.7-21 10.6l-6.6.7 5.5 2.7c10.7 5.2 23.8 2.9 29.3-5.1 4.2-6.1 5.7-16.7 3.8-26.7l-.8-4-.8 4zm-3.1 20.6c-.3.5-1 .7-1.5.3-.5-.3-.7-1-.3-1.5.3-.5 1-.7 1.5-.3.5.3.7 1 .3 1.5zm-3.4 3.8c0 1.2-2 2.5-2.7 1.8-.7-.7.6-2.7 1.8-2.7.5 0 .9.4.9.9zm-6.2 4.4c.2 1-.3 1.7-1.2 1.7-1.8 0-2.9-1.6-2.1-3.1.9-1.4 2.9-.6 3.3 1.4zM150.5 249.9c-.7 2.3.3 5.1 2 5.1.7 0 1.6-.7 1.9-1.6.9-2.3-.2-5.4-1.9-5.4-.8 0-1.6.8-2 1.9zM164 249c0 .5.5 1 1.1 1 .5 0 .7-.5.4-1-.3-.6-.8-1-1.1-1-.2 0-.4.4-.4 1zM185 251.4c0 3.9 1 4.5 3.1 2 .9-1.1 1-2 .3-3.2-2-3-3.4-2.5-3.4 1.2zM201.1 249.8c-1.5 2.8.5 5.3 4 5 2.5-.2 2.9-.6 2.9-3.3 0-2.7-.4-3.1-3-3.3-1.9-.2-3.2.4-3.9 1.6zM224 249.6c0 .8.5 1.2 1 .9.6-.4.8-1.1.5-1.6-.9-1.4-1.5-1.1-1.5.7zM228.7 270.2c-3.7 2.9-5.1 14.4-2.1 18.6 1.8 2.6 7.5 3 9.4.7 2.9-3.5 2-15.4-1.6-19-1.9-1.8-3.5-1.9-5.7-.3zM267.6 270.6c-1.1 2.9-.6 5.1 1.5 7 2.1 1.9 2.1 1.8 4-.5 2.2-2.7 2.4-5.2.7-6.9-1.7-1.7-5.5-1.5-6.2.4zM267.7 282.8c-2 2.2-2.2 6.3-.5 8 2.2 2.2 6.7 1.4 8-1.4 2.5-5.3-3.7-10.8-7.5-6.6z"/></svg>